inDegrees=yes
name=ik_S57_A02_T03
DataType=double
version=3
OpenSimVersion=4.3-2021-08-27-4bc7ad9
endheader
time	pelvis_tilt	pelvis_list	pelvis_rotation	pelvis_tx	pelvis_ty	pelvis_tz	hip_flexion_r	hip_adduction_r	hip_rotation_r	knee_angle_r	knee_angle_r_beta	ankle_angle_r	subtalar_angle_r	mtp_angle_r	hip_flexion_l	hip_adduction_l	hip_rotation_l	knee_angle_l	knee_angle_l_beta	ankle_angle_l	subtalar_angle_l	mtp_angle_l	lumbar_extension	lumbar_bending	lumbar_rotation	arm_flex_r	arm_add_r	arm_rot_r	elbow_flex_r	pro_sup_r	wrist_flex_r	wrist_dev_r	arm_flex_l	arm_add_l	arm_rot_l	elbow_flex_l	pro_sup_l	wrist_flex_l	wrist_dev_l
0	0	0	0	0	0.9399999999999999	0	0	0	0	0	0	0	0	0	0	0	0	0	0	0	0	0	0	0	0	0	0	0	0	89.99999999963507	0	0	0	0	0	0	89.99999999869995	0	0
0.02	1.855457034904734	-0.2342391625129608	86.2238273403499	0	0.9399999999999999	0	0.2169752019767643	0.8879896574356352	-2.659219834774468	2.018336345393176	0.03522661463978041	0	0	0	-0.7473660721391593	-1.37987408642133	1.714597067940772	0.3766574017671168	0.006573911812843295	0	0	0	0	0	0	1.729794973629855	-1.729794973629855	0.3078221254369781	8.548642149151121	89.69217789228192	0	0	1.729794973629855	-1.729794973629855	0.3078221254369781	8.548642149151121	89.6921778914046	0	0
0.04	1.868988336643542	-0.1807838054941076	86.31751264102451	0	0.9399999999999999	0	0.03251482515581968	0.9334038138448446	-2.750350329286386	1.949181449489856	0.03401963401239354	0	0	0	-0.7954130722535342	-1.442307743607955	1.771479227540214	0.4001992840219345	0.006984795170306692	0	0	0	0	0	0	1.734148971979339	-1.734148971979339	0.3086742866926974	8.586926316517358	89.69132573107717	0	0	1.734148971979339	-1.734148971979339	0.3086742866926974	8.586926316517358	89.69132573020002	0	0
0.06	1.862572206755909	-0.117167994818715	86.38324914650914	0	0.9399999999999999	0	-0.03992745921074471	0.9414187187298905	-2.805657844705253	1.930448231769268	0.03369267768367632	0	0	0	-0.8360213383329527	-1.498152482115967	1.835976352251642	0.4518974635040028	0.007887098619555761	0	0	0	0	0	0	1.892987465169512	-1.892987465169512	0.3381281567583462	8.980167542669848	89.66187186274578	0	0	1.892987465169512	-1.892987465169512	0.3381281567583462	8.980167542669848	89.66187186187418	0	0
0.08	1.856483025156023	-0.1364477022002511	86.35709245659154	0	0.9399999999999999	0	-0.1156210455280123	0.9320932611578204	-2.913038316809199	1.925976617544376	0.03361463329257294	0	0	0	-0.8236133993038751	-1.522410702927503	1.818019987674604	0.4518058828686196	0.007885500235937254	0	0	0	0	0	0	1.894247210427119	-1.894247210427119	0.3383736360180715	8.990872703099031	89.66162638350075	0	0	1.894247210427119	-1.894247210427119	0.3383736360180715	8.990872703099031	89.66162638262917	0	0
0.1	1.830416524277944	-0.06994810793174157	86.5110441999412	0	0.9399999999999999	0	-0.1648855252858673	0.9183408884570894	-3.094989509739085	1.941497084630424	0.03388551654467189	0	0	0	-0.8749252296445849	-1.531313306153665	2.033623417922913	0.4395207013104728	0.007671083368542306	0	0	0	0	0	0	2.037492576361874	-2.037492576361874	0.3645944170375183	9.241624352635743	89.63540560401971	0	0	2.037492576361874	-2.037492576361874	0.3645944170375183	9.241624352635743	89.63540560315288	0	0
0.12	1.84413752926046	0.05838510218800718	86.57999428714646	0	0.9399999999999999	0	-0.3514844222990677	0.9387457761235486	-3.144215269219364	1.929270429488451	0.03367212115593857	0	0	0	-0.9952336812780145	-1.559492636250881	2.119560959979052	0.4943218761036027	0.008627544302643345	0	0	0	0	0	0	2.194098307753057	-2.194098307753056	0.3934145785866833	9.580030228017318	89.6065854441643	0	0	2.194098307753057	-2.194098307753056	0.3934145785866833	9.580030228017318	89.60658544330285	0	0
0.14	1.816738062702659	0.08213021130388855	86.66097025961085	0	0.9399999999999999	0	-0.4191920850771982	0.8989681257360183	-3.126057046981814	1.92237079973589	0.03355169989958782	0	0	0	-0.9422726076861605	-1.584268629467896	2.13349306704815	0.5148226246569869	0.008985349864023365	0	0	0	0	0	0	2.19489030081992	-2.194890300819919	0.3935674583026088	9.586388464016823	89.60643256445751	0	0	2.19489030081992	-2.194890300819919	0.3935674583026088	9.586388464016823	89.60643256359604	0	0
0.16	1.742448641868615	0.09829629735487123	86.74872249979491	0	0.9399999999999999	0	-0.4776507341499857	0.7964344328750654	-3.063636431642598	1.839576185601739	0.03210666128002864	0	0	0	-0.8913151720642876	-1.523384980075203	2.145266851079362	0.7023893909974721	0.01225900750398371	0	0	0	0	0	0	2.199082668516433	-2.199082668516432	0.3943862290741377	9.622011206954038	89.60561379373488	0	0	2.199082668516433	-2.199082668516432	0.3943862290741377	9.622011206954038	89.60561379287364	0	0
0.18	1.688824861223001	0.0911314503572434	86.87390318269685	0	0.9399999999999999	0	-0.4984972365180321	0.7259724761306509	-3.099526877856571	1.797553734171817	0.03137323114281711	0	0	0	-0.7621926864054775	-1.498817853739295	2.201776350772247	0.9690764000745442	0.01691357388467462	0	0	0	0	0	0	2.209180244727179	-2.209180244727178	0.3963608929230387	9.708246070605357	89.60363913000413	0	0	2.209180244727179	-2.209180244727178	0.3963608929230387	9.708246070605357	89.60363912914322	0	0
0.2	1.667151178560695	0.0715095299298573	86.98375781082538	0	0.9399999999999999	0	-0.4567676927580313	0.6890367418842194	-3.132040985890308	1.796782163609744	0.03135976469609747	0	0	0	-0.7426080435538895	-1.47832564956429	2.319826957248129	0.9669223081979668	0.01687597788903788	0	0	0	0	0	0	2.211561758243489	-2.211561758243489	0.3968234231030531	9.727839839090796	89.60317659985179	0	0	2.211561758243489	-2.211561758243489	0.3968234231030531	9.727839839090796	89.60317659899094	0	0
0.22	1.652256673408062	0.03319389246991845	87.11689941964642	0	0.9399999999999999	0	-0.3833720468907117	0.6767475565238361	-3.334397896292814	1.849601869792764	0.03228164247892718	0	0	0	-0.6409269648850919	-1.468967200273097	2.341601032448979	1.019268954546642	0.01778959922019932	0	0	0	0	0	0	2.214215757036081	-2.21421575703608	0.3973374268802751	9.749401312299877	89.60266259610525	0	0	2.214215757036081	-2.21421575703608	0.3973374268802751	9.749401312299877	89.60266259524452	0	0
0.24	1.630809781303605	-0.04230751540036248	87.29098004689567	0	0.9399999999999999	0	-0.2045096319257488	0.6091493041181909	-3.606493173573555	2.04490206880282	0.03569027398145282	0	0	0	-0.5294158209071483	-1.452675101094157	2.526689097643508	1.163059264883656	0.02029921356804466	0	0	0	0	0	0	2.477060062853099	-2.477060062853099	0.4470614590288075	11.04092654486366	89.55293856690328	0	0	2.477060062853099	-2.477060062853099	0.4470614590288075	11.04092654486366	89.55293856605181	0	0
0.26	1.606095738113627	-0.1352514094604754	87.43134418979091	0	0.9399999999999999	0	-0.03824864753150978	0.5684044864577432	-3.703801677574538	2.217906579116563	0.03870977230722813	0	0	0	-0.2918750832367095	-1.38934517150065	2.35123274535309	1.332603420520147	0.02325831731141513	0	0	0	0	0	0	2.48301845195426	-2.483018451954259	0.4482222589724105	11.08827299859279	89.55177776702907	0	0	2.48301845195426	-2.483018451954259	0.4482222589724105	11.08827299859279	89.55177776617779	0	0
0.28	1.625061511058118	-0.2046596427253326	87.58278398430504	0	0.9399999999999999	0	0.1097149724800776	0.5418202646876625	-3.851106974100447	2.364437582940379	0.04126722078020612	0	0	0	-0.1648287565576044	-1.392893389295875	2.352646804095855	1.423743379217832	0.02484900967082139	0	0	0	0	0	0	2.488793780342085	-2.488793780342084	0.4493461861828723	11.1338415982008	89.55065383988574	0	0	2.488793780342085	-2.488793780342084	0.4493461861828723	11.1338415982008	89.55065383903474	0	0
0.3	1.649396051128903	-0.2927787361717702	87.85812010056314	0	0.9399999999999999	0	0.3536010018847083	0.4524649308319798	-4.103545536349634	2.57357775054951	0.04491740530315826	0	0	0	-0.02544481325775265	-1.349475178034952	2.487206721244625	1.48494836723313	0.025917238230332	0	0	0	0	0	0	2.495871074222148	-2.495871074222146	0.4507236310772919	11.18960389464534	89.54927639507363	0	0	2.495871074222148	-2.495871074222146	0.4507236310772919	11.18960389464534	89.54927639422284	0	0
0.32	1.650857752273146	-0.2707875144513713	87.85025580407114	0	0.9399999999999999	0	0.3454236963766846	0.4348339601499224	-4.087276824861424	2.65614834974797	0.04635853412451597	0	0	0	-0.02792652190828429	-1.288288803315231	2.4067825427001	1.499625806016841	0.02617340786286768	0	0	0	0	0	0	2.663623704657801	-2.6636237046578	0.4818002864031654	11.71370965372058	89.518199741578	0	0	2.663623704657801	-2.6636237046578	0.4818002864031654	11.71370965372058	89.51819974073302	0	0
0.34	1.65361954268703	-0.283630451413063	87.84616814432671	0	0.9399999999999999	0	0.4201454626825403	0.3379930162439124	-4.017321722622051	2.705163141627183	0.04721400362498802	0	0	0	0.01040238951595169	-1.193072637429282	2.422048305351937	1.458414098185988	0.02545412787084935	0	0	0	0	0	0	2.666991328984866	-2.666991328984865	0.4824527747145924	11.73932294202981	89.51754725330551	0	0	2.666991328984866	-2.666991328984865	0.4824527747145924	11.73932294202981	89.51754725246066	0	0
0.36	1.65601380206279	-0.2729747504932483	87.85112785290764	0	0.9399999999999999	0	0.4166880721340441	0.3431688605682127	-4.0330507524412	2.763729183403187	0.04823617388383983	0	0	0	0.009583521666360464	-1.079482944783761	2.49199264003035	1.397616448043989	0.02439300869839587	0	0	0	0	0	0	2.903108868677363	-2.903108868677362	0.5268950352987327	12.79951653645611	89.47310499535101	0	0	2.903108868677363	-2.903108868677362	0.5268950352987327	12.79951653645611	89.47310499451449	0	0
0.3800000000000001	1.713274164592845	-0.4208158684923819	88.23665760214247	0	0.9399999999999999	0	0.639035789175643	0.2561202977857743	-4.33001735685353	2.807116956885133	0.04899343338620928	0	0	0	0.2297329321910755	-0.9045151054320769	2.827866721113897	1.372338675085145	0.02395182833269246	0	0	0	0	0	0	2.907249787649089	-2.907249787649088	0.5276945621128429	12.82943996065221	89.47230546858462	0	0	2.907249787649089	-2.907249787649088	0.5276945621128429	12.82943996065221	89.47230546774821	0	0
0.4000000000000001	1.706948355381342	-0.4262440533644009	88.23606710705548	0	0.9399999999999999	0	0.9273508831672791	0.03866295045506037	-4.264273739975259	3.127433040644257	0.05458400369489992	0	0	0	0.284676492797071	-0.7284320770629643	2.871882867555201	1.278626563714722	0.02231624344028295	0	0	0	0	0	0	2.916307624876707	-2.916307624876706	0.5294487156277179	12.89563038709425	89.47055131517436	0	0	2.916307624876707	-2.916307624876706	0.5294487156277179	12.89563038709425	89.47055131433837	0	0
